<?xml version="1.0" standalone="no"?>
<!DOCTYPE svg PUBLIC "-//W3C//DTD SVG 20010904//EN"
 "http://www.w3.org/TR/2001/REC-SVG-20010904/DTD/svg10.dtd">
<svg version="1.0" xmlns="http://www.w3.org/2000/svg"
 width="360.000000pt" height="360.000000pt" viewBox="0 0 360.000000 360.000000"
 preserveAspectRatio="xMidYMid meet">
<metadata>
Created by potrace 1.14, written by Peter Selinger 2001-2017
</metadata>
<g transform="translate(0.000000,360.000000) scale(0.100000,-0.100000)"
fill="#000000" stroke="none">
<path d="M2315 3022 c-129 -14 -272 -88 -472 -244 -35 -26 -64 -48 -66 -48 -2
0 -17 12 -33 26 -61 54 -232 168 -299 199 -110 51 -183 68 -272 63 -43 -2 -87
-9 -98 -15 -11 -6 -45 -23 -75 -39 -121 -61 -398 -310 -471 -424 -47 -72 -59
-110 -59 -184 0 -121 55 -242 186 -411 34 -44 71 -89 83 -99 21 -19 27 -41 14
-48 -7 -3 -44 -43 -98 -109 -92 -109 -166 -262 -190 -392 -14 -73 -14 -91 -2
-143 23 -96 53 -143 161 -249 174 -171 340 -291 443 -321 126 -37 285 8 478
134 39 25 72 49 75 52 3 3 25 21 50 40 25 19 56 45 70 58 52 50 46 52 184 -71
59 -53 221 -154 301 -187 71 -30 90 -34 175 -35 88 0 101 3 162 33 65 32 247
165 338 247 102 92 158 155 185 211 24 50 28 72 29 144 1 80 -7 151 -20 171
-3 5 -7 20 -10 32 -3 20 -55 128 -91 191 -7 12 -46 64 -87 115 -42 52 -76 99
-76 104 0 5 22 34 48 65 90 106 193 269 208 331 2 9 7 32 12 51 16 68 7 163
-22 226 -22 47 -55 86 -169 197 -162 159 -275 248 -364 288 -71 33 -160 49
-228 41z m335 -458 c0 -16 -85 -166 -123 -215 -23 -31 -51 -68 -62 -83 -11
-14 -25 -26 -30 -26 -16 0 -145 120 -145 134 0 16 109 83 235 146 94 47 125
58 125 44z m-1547 -110 c71 -47 134 -90 141 -95 6 -5 22 -18 36 -28 l25 -19
-54 -48 c-73 -67 -77 -68 -98 -43 -10 12 -23 26 -28 33 -6 6 -28 36 -50 66
-22 30 -42 57 -45 60 -15 15 -80 135 -80 150 0 21 26 8 153 -76z m758 -569
c41 -35 77 -65 82 -65 11 0 8 -17 -6 -32 -42 -41 -221 -200 -276 -244 -13 -10
-31 -26 -40 -35 -24 -22 -189 -159 -241 -199 -25 -19 -49 -38 -55 -43 -182
-140 -405 -266 -405 -228 0 18 70 143 118 211 57 80 237 260 446 445 87 77
186 166 220 197 33 32 66 58 72 58 6 0 44 -29 85 -65z m569 -532 c19 -26 40
-51 46 -57 17 -18 117 -167 142 -213 30 -55 17 -56 -75 -6 -108 58 -281 176
-298 202 -6 10 122 120 140 120 6 0 26 -21 45 -46z"/>
</g>
</svg>
